{
  "asset": {
    "generator": "Khronos glTF Blender I/O v1.5.17",
    "version": "2.0"
  },
  "scene": 0,
  "scenes": [
    {
      "name": "Scene",
      "nodes": [
        0
      ]
    }
  ],
  "nodes": [
    {
      "mesh": 0,
      "name": "sphere_gltf"
    }
  ],
  "materials": [
    {
      "doubleSided": true,
      "name": "grey_roof_01",
      "normalTexture": {
        "index": 0
      },
      "pbrMetallicRoughness": {
        "baseColorTexture": {
          "index": 1
        },
        "metallicFactor": 0,
        "metallicRoughnessTexture": {
          "index": 2
        }
      }
    }
  ],
  "meshes": [
    {
      "name": "Sphere.001",
      "primitives": [
        {
          "attributes": {
            "POSITION": 0,
            "NORMAL": 1,
            "TEXCOORD_0": 2
          },
          "indices": 3,
          "material": 0
        }
      ]
    }
  ],
  "textures": [
    {
      "sampler": 0,
      "source": 0
    },
    {
      "sampler": 0,
      "source": 1
    },
    {
      "sampler": 0,
      "source": 2
    }
  ],
  "images": [
    {
      "mimeType": "image/jpeg",
      "name": "grey_roof_01_nor_gl_4k",
      "uri": "textures/grey_roof_01_nor_gl_1k.jpg"
    },
    {
      "mimeType": "image/jpeg",
      "name": "grey_roof_01_diff_4k",
      "uri": "textures/grey_roof_01_diff_1k.jpg"
    },
    {
      "mimeType": "image/jpeg",
      "name": "grey_roof_01_rough_4k",
      "uri": "textures/grey_roof_01_rough_1k.jpg"
    }
  ],
  "accessors": [
    {
      "bufferView": 0,
      "componentType": 5126,
      "count": 53845,
      "max": [
        3.9962408542633057,
        4.0268235206604,
        4.026069641113281
      ],
      "min": [
        -3.9962399005889893,
        -4.016250133514404,
        -4.026118755340576
      ],
      "type": "VEC3"
    },
    {
      "bufferView": 1,
      "componentType": 5126,
      "count": 53845,
      "type": "VEC3"
    },
    {
      "bufferView": 2,
      "componentType": 5126,
      "count": 53845,
      "type": "VEC2"
    },
    {
      "bufferView": 3,
      "componentType": 5123,
      "count": 322170,
      "type": "SCALAR"
    }
  ],
  "bufferViews": [
    {
      "buffer": 0,
      "byteLength": 646140,
      "byteOffset": 0
    },
    {
      "buffer": 0,
      "byteLength": 646140,
      "byteOffset": 646140
    },
    {
      "buffer": 0,
      "byteLength": 430760,
      "byteOffset": 1292280
    },
    {
      "buffer": 0,
      "byteLength": 644340,
      "byteOffset": 1723040
    }
  ],
  "samplers": [
    {
      "magFilter": 9729,
      "minFilter": 9987
    }
  ],
  "buffers": [
    {
      "byteLength": 2367380,
      "uri": "grey_roof_01.bin"
    }
  ]
}